<?xml version="1.0" encoding="UTF-8" standalone="no"?>
<svg
   xmlns:dc="http://purl.org/dc/elements/1.1/"
   xmlns:cc="http://creativecommons.org/ns#"
   xmlns:rdf="http://www.w3.org/1999/02/22-rdf-syntax-ns#"
   xmlns:svg="http://www.w3.org/2000/svg"
   xmlns="http://www.w3.org/2000/svg"
   xmlns:sodipodi="http://sodipodi.sourceforge.net/DTD/sodipodi-0.dtd"
   xmlns:inkscape="http://www.inkscape.org/namespaces/inkscape"
   width="59.79567mm"
   height="85.066177mm"
   viewBox="0 0 59.79567 85.066177"
   version="1.1"
   id="svg8"
   inkscape:version="1.0.1 (3bc2e813f5, 2020-09-07)"
   sodipodi:docname="banana.svg">
  <style
     id="style1053"></style>
  <defs
     id="defs2">
    <inkscape:path-effect
       effect="bspline"
       id="path-effect996"
       is_visible="true"
       lpeversion="1"
       weight="33.333333"
       steps="2"
       helper_size="0"
       apply_no_weight="true"
       apply_with_weight="true"
       only_selected="false" />
    <inkscape:path-effect
       effect="bspline"
       id="path-effect924"
       is_visible="true"
       lpeversion="1"
       weight="33.333333"
       steps="2"
       helper_size="0"
       apply_no_weight="true"
       apply_with_weight="true"
       only_selected="false" />
    <inkscape:path-effect
       effect="bspline"
       id="path-effect914"
       is_visible="true"
       lpeversion="1"
       weight="33.333333"
       steps="2"
       helper_size="0"
       apply_no_weight="true"
       apply_with_weight="true"
       only_selected="false" />
    <inkscape:path-effect
       effect="bspline"
       id="path-effect902"
       is_visible="true"
       lpeversion="1"
       weight="33.333333"
       steps="2"
       helper_size="0"
       apply_no_weight="true"
       apply_with_weight="true"
       only_selected="false" />
    <inkscape:path-effect
       effect="bspline"
       id="path-effect888"
       is_visible="true"
       lpeversion="1"
       weight="33.333333"
       steps="2"
       helper_size="0"
       apply_no_weight="true"
       apply_with_weight="true"
       only_selected="false" />
    <inkscape:path-effect
       effect="bspline"
       id="path-effect884"
       is_visible="true"
       lpeversion="1"
       weight="33.333333"
       steps="2"
       helper_size="0"
       apply_no_weight="true"
       apply_with_weight="true"
       only_selected="false" />
    <inkscape:path-effect
       effect="bspline"
       id="path-effect878"
       is_visible="true"
       lpeversion="1"
       weight="33.333333"
       steps="2"
       helper_size="0"
       apply_no_weight="true"
       apply_with_weight="true"
       only_selected="false" />
    <inkscape:path-effect
       effect="bspline"
       id="path-effect870"
       is_visible="true"
       lpeversion="1"
       weight="33.333333"
       steps="2"
       helper_size="0"
       apply_no_weight="true"
       apply_with_weight="true"
       only_selected="false" />
  </defs>
  <sodipodi:namedview
     id="base"
     pagecolor="#ffffff"
     bordercolor="#666666"
     borderopacity="1.0"
     inkscape:pageopacity="0.0"
     inkscape:pageshadow="2"
     inkscape:zoom="0.98994949"
     inkscape:cx="65.943705"
     inkscape:cy="189.50691"
     inkscape:document-units="mm"
     inkscape:current-layer="g1045"
     inkscape:document-rotation="0"
     showgrid="false"
     fit-margin-top="0"
     fit-margin-left="0"
     fit-margin-right="0"
     fit-margin-bottom="0"
     inkscape:window-width="1920"
     inkscape:window-height="1027"
     inkscape:window-x="-8"
     inkscape:window-y="-8"
     inkscape:window-maximized="1" />
  <metadata
     id="metadata5">
    <rdf:RDF>
      <cc:Work
         rdf:about="">
        <dc:format>image/svg+xml</dc:format>
        <dc:type
           rdf:resource="http://purl.org/dc/dcmitype/StillImage" />
        <dc:title></dc:title>
      </cc:Work>
    </rdf:RDF>
  </metadata>
  <g
     inkscape:label="Layer 1"
     inkscape:groupmode="layer"
     id="layer1"
     transform="translate(477.19965,-332.46558)" />
  <g
     inkscape:groupmode="layer"
     id="layer2"
     inkscape:label="Layer 2"
     transform="translate(477.19965,-332.46558)">
    <g
       id="g1045"
       transform="translate(-873.55097,25.327899)">
      <g
         id="g1051"
         transform="translate(-109.01156,80.972096)"
         style="stroke:none">
        <path
           style="fill:#ffcc00;stroke:none;stroke-width:0.189286"
           d="m 553.75052,310.88879 c -1.37113,-1.12279 -1.64012,-2.54265 -2.71692,-3.74553 -0.48469,-0.51236 -0.76229,-1.3539 -1.18666,-1.76081 -0.54909,-0.8808 -1.20669,-1.61842 -1.66898,-2.52385 -0.5994,-0.63143 -0.9222,-1.54511 -1.49405,-2.10863 -0.64761,-0.63808 -1.05646,-1.537 -1.57927,-2.03272 -0.77659,-0.81944 -1.4768,-1.67876 -2.09015,-2.26108 -0.69933,-0.58896 -1.82379,-1.42346 -2.42224,-1.84916 -0.20137,-0.18753 -0.16991,-0.46675 -0.0119,-0.67208 0.20069,-0.33934 1.22849,-1.10164 1.39873,-1.38334 0.68407,-0.8501 0.98039,-1.25204 1.90069,-2.44469 0.48661,-0.70682 1.40118,-2.31203 1.40118,-2.31203 0.93356,-1.57278 1.47011,-3.12543 1.79219,-4.1396 0.14598,-0.51288 0.32874,-1.18825 0.40749,-1.38203 0.13056,-0.28614 0.1733,-0.67003 0.18994,-0.76898 0.0147,-0.11211 0.0564,-0.3164 0.0709,-0.43358 0.0303,-0.26971 0.0689,-0.54891 0.10362,-0.77299 0.0863,-0.48684 0.44312,-0.55183 0.80366,-0.19506 0.21296,0.21074 0.3805,0.3738 0.60088,0.61476 4.81143,5.34281 5.99803,5.94507 7.27633,12.6353 0.48303,3.63687 1.28033,4.65987 0.81472,12.07297 -0.15781,2.18806 -0.0181,1.29161 -0.3174,3.13824 -0.21509,0.92462 -0.291,1.11134 -0.62662,1.73879 -0.49118,0.73814 -0.79918,0.83392 -1.41249,0.92888 -0.73996,0.006 -0.96173,-0.13198 -1.23365,-0.34278 z"
           id="path990"
           sodipodi:nodetypes="cccccccccccccccccsccccccc" />
        <path
           style="fill:#ffcc00;stroke:none;stroke-width:0.0236607"
           d="m 551.61592,281.40637 c -0.24903,-0.25784 -0.52761,-0.56673 -1.30993,-1.34538 -0.4867,-0.48444 -1.18319,-1.09789 -1.49048,-2.01402 -0.0423,-0.7478 0.16256,-1.19008 0.55362,-2.2857 0.18055,-0.50586 0.47023,-1.5457 0.68286,-1.9124 0.32389,-0.4256 0.77787,-0.29632 1.42183,-0.22161 1.73864,0.1992 3.89449,0.79653 6.09565,0.43139 2.43041,-0.51076 2.96292,-0.53844 3.67503,-2.3762 0.47292,-1.28366 -0.13902,-5.65424 2.06047,-5.70332 0,0 1.15272,-0.20689 1.61168,1.58185 0.39409,1.38038 0.11903,2.35388 0.2419,4.05633 -0.21307,2.279 -0.54434,2.77398 -0.94095,4.15638 -0.79304,2.7642 -2.08275,3.21592 -4.14229,4.60108 -0.46165,0.31049 -1.92727,1.01764 -2.44133,1.1553 -2.25188,0.603 -0.3163,0.44637 -4.0663,0.25478 l -1.15766,-0.0592 c 0,0 -0.54349,-0.0598 -0.79406,-0.31933 z"
           id="path1002"
           sodipodi:nodetypes="sscscccccccsssscss" />
        <path
           style="fill:#ffcc00;stroke:none;stroke-width:0.0946428"
           d="m 515.58596,302.65026 c -1.99641,-0.0866 -4.3469,-0.51824 -6.78647,-1.24621 l -1.4644,-0.43696 -0.98605,-0.97546 -0.98616,-0.97545 0.22695,-1.43028 c 0.12488,-0.78667 0.2333,-1.43511 0.24097,-1.441 0.94565,-0.72594 1.90457,-1.4162 1.97506,-1.42162 0.0519,-0.004 0.76547,0.0889 1.58688,0.20635 2.14065,0.30604 3.8709,0.4764 5.45147,0.53676 1.8407,0.0703 4.65338,-0.21021 5.89648,-0.58804 2.60733,-0.79243 4.53702,-2.01095 6.25242,-3.948 1.15199,-1.30082 2.0205,-2.57622 3.24612,-4.76674 1.34017,-2.39537 4.58351,-8.35087 4.53748,-8.55434 -0.0591,-0.26022 -2.31018,-0.44781 -2.50104,-0.35901 -0.0872,0.0404 -0.4364,0.96163 -1.00252,1.89127 -4.5733,7.50983 -6.44879,9.7896 -8.82271,11.40187 -1.05137,0.71402 -3.05761,1.80618 -4.29046,2.3265 -1.69224,0.71426 -3.40181,0.66416 -5.51439,0.66208 l -0.77052,-7.5e-4 2.34569,-2.31621 c 10.75589,-10.62049 12.29149,-12.55446 14.72436,-18.54467 1.61568,-3.97804 2.30684,-7.24365 2.27301,-10.73968 -0.0266,-2.75049 -0.51193,-5.21039 -2.00088,-10.14101 -1.18275,-3.91664 -1.33795,-4.57478 -1.36912,-5.80375 -0.0139,-0.54625 0.002,-1.1198 0.0346,-1.27446 l 0.0596,-0.28125 2.00972,1.68594 c 5.00284,4.19676 5.91872,5.60704 6.37117,9.81014 0.32569,3.02371 0.37367,4.84836 -0.59865,11.75339 -0.25611,1.81825 -1.65755,4.42569 -1.57423,4.4971 0.12938,0.11087 3.11518,0.21932 2.95809,0.32038 0,0 0.93869,-1.59913 0.95442,-1.71412 0.0162,-0.11503 0.79146,-2.0518 0.96198,-3.28985 0.38312,-2.78198 0.57346,-4.28297 0.62854,-6.20855 0.0588,-2.05976 -0.12772,-5.4117 -0.3965,-7.12486 -0.63043,-4.01713 -1.46684,-6.09899 -3.30602,-8.22805 -0.8499,-0.98389 -3.29182,-3.06426 -5.30635,-4.52056 -1.95019,-1.40985 -2.26856,-1.65953 -2.04984,-1.60765 0.56697,0.13444 2.41877,0.17557 3.26657,0.0725 0.79354,-0.0964 1.03707,-0.16546 1.45841,-0.41334 1.17326,-0.69012 1.73356,-2.12074 1.70123,-4.34332 l -0.0148,-1.00119 1.19452,3.26869 1.19462,3.26869 1.38112,1.22067 c 3.85161,3.40402 5.90489,5.98036 7.86217,9.8651 1.80981,3.59195 2.72272,6.94572 3.05168,11.20974 0.16596,2.15911 0.16905,3.46501 0.0117,5.33253 -0.52778,6.25225 -3.64658,14.74766 -7.4827,20.38267 -4.05584,5.95761 -10.26381,10.56483 -17.02049,12.63156 -2.28309,0.69835 -3.33709,0.89276 -6.21719,1.14678 -1.47557,0.13017 -3.00376,0.22286 -3.39603,0.20567 z"
           id="path988"
           sodipodi:nodetypes="cscccscssssssccsssscsssssccscssscsscsssssccccssccssscc" />
        <path
           style="fill:#ffcc00;stroke:none;stroke-width:0.26769"
           d="m 527.42525,236.45101 c -0.28945,-0.14653 -0.98946,-0.62228 -1.55557,-1.05721 -0.56613,-0.43493 -1.15041,-0.78206 -1.29841,-0.77139 -0.54219,-0.20479 -0.7691,-0.74273 -1.26724,-0.9761 -0.13775,0.0106 -0.597,-0.25568 -1.02052,-0.59171 -0.50022,-0.45387 -0.23963,-1.47789 0.0725,-1.86244 0.65506,-0.78778 1.78038,-1.23271 2.58105,-1.70896 1.40258,-0.82928 1.93068,-1.32241 2.53274,-1.73398 0.53024,-0.37191 1.77325,-1.33027 2.48525,-1.58364 0.82396,0.24944 0.98742,1.09005 1.36578,1.70265 0.55754,0.6201 0.62715,1.06334 0.96309,1.65092 0.42012,0.62817 0.37285,1.51607 -0.60852,4.05591 -0.815,2.10931 -1.14435,2.67128 -1.58691,2.70788 -0.30713,0.0256 -0.91364,0.13351 -1.34773,0.24034 -0.43407,0.10678 -1.02608,0.0739 -1.31552,-0.0723 z"
           id="path992"
           sodipodi:nodetypes="sscccccccccscsss" />
      </g>
    </g>
  </g>
</svg>
