<?xml version="1.0" encoding="UTF-8" standalone="no"?>
<svg
   xmlns:dc="http://purl.org/dc/elements/1.1/"
   xmlns:cc="http://creativecommons.org/ns#"
   xmlns:rdf="http://www.w3.org/1999/02/22-rdf-syntax-ns#"
   xmlns:svg="http://www.w3.org/2000/svg"
   xmlns="http://www.w3.org/2000/svg"
   xmlns:sodipodi="http://sodipodi.sourceforge.net/DTD/sodipodi-0.dtd"
   xmlns:inkscape="http://www.inkscape.org/namespaces/inkscape"
   width="100mm"
   height="100mm"
   viewBox="0 0 100 100"
   version="1.1"
   id="svg1061"
   inkscape:version="1.0.1 (3bc2e813f5, 2020-09-07)"
   sodipodi:docname="github.svg">
  <defs
     id="defs1055">
    <inkscape:path-effect
       effect="bspline"
       id="path-effect1095"
       is_visible="true"
       lpeversion="1"
       weight="33.333333"
       steps="2"
       helper_size="0"
       apply_no_weight="true"
       apply_with_weight="true"
       only_selected="false" />
  </defs>
  <sodipodi:namedview
     id="base"
     pagecolor="#ffffff"
     bordercolor="#666666"
     borderopacity="1.0"
     inkscape:pageopacity="0.0"
     inkscape:pageshadow="2"
     inkscape:zoom="0.7"
     inkscape:cx="-76.805075"
     inkscape:cy="257.58051"
     inkscape:document-units="mm"
     inkscape:current-layer="layer1"
     inkscape:document-rotation="0"
     showgrid="false"
     fit-margin-top="0"
     fit-margin-left="0"
     fit-margin-right="0"
     fit-margin-bottom="0"
     inkscape:window-width="1920"
     inkscape:window-height="1027"
     inkscape:window-x="-8"
     inkscape:window-y="-8"
     inkscape:window-maximized="1" />
  <metadata
     id="metadata1058">
    <rdf:RDF>
      <cc:Work
         rdf:about="">
        <dc:format>image/svg+xml</dc:format>
        <dc:type
           rdf:resource="http://purl.org/dc/dcmitype/StillImage" />
        <dc:title></dc:title>
      </cc:Work>
    </rdf:RDF>
  </metadata>
  <g
     inkscape:label="Layer 1"
     inkscape:groupmode="layer"
     id="layer1"
     transform="translate(-58.262781,-103.27371)">
    <path
       style="fill:none;stroke:#000000;stroke-width:6;stroke-linecap:butt;stroke-linejoin:miter;stroke-miterlimit:4;stroke-dasharray:none;stroke-opacity:1"
       d="m 95.509123,200.80557 c 0,0 -0.104359,-14.43718 -0.104359,-14.43718 -1.896139,0.12028 -3.791983,0.24055 -5.813717,0.27933 -2.021734,0.0388 -4.168921,-0.004 -6.259228,-0.65414 -2.090306,-0.65017 -4.123534,-1.9079 -5.516998,-3.34396 -1.393463,-1.43606 -2.146851,-3.05045 -3.114946,-4.7622 -0.968094,-1.71174 -2.150872,-3.5207 -3.466994,-4.91809 -1.316122,-1.3974 -2.76561,-2.38305 -3.583239,-3.14834 -0.817628,-0.76529 -1.003164,-1.3103 -0.858208,-1.69897 0.144957,-0.38866 0.62039,-0.62058 1.304643,-0.75972 0.684252,-0.13913 1.577137,-0.18552 2.586047,-0.0173 1.008911,0.16821 2.133714,0.55088 3.280601,1.30443 1.146888,0.75354 2.31582,1.87774 3.208707,2.89825 0.892887,1.0205 1.509698,1.93716 2.003368,2.86938 0.493671,0.93222 0.864249,1.87991 1.440202,2.81388 0.575952,0.93398 1.357079,1.85415 2.008624,2.43595 0.651545,0.58181 1.17335,0.82532 2.072999,1.02509 0.899649,0.19978 2.177061,0.35591 3.308583,0.41515 1.131521,0.0592 2.117057,0.0216 2.780273,0.0677 0.663216,0.0461 1.003983,0.17569 1.484079,0.40124 0.480096,0.22556 1.099479,0.54699 1.702056,0.96198 0.602578,0.41499 1.188095,0.92322 1.483671,0.19554 0.295576,-0.72768 0.300993,-2.69001 0.447624,-4.45594 0.146631,-1.76594 0.434498,-3.33442 1.039691,-4.61897 0.605194,-1.28455 1.527649,-2.2849 1.964431,-2.79731 0.436781,-0.51242 0.387662,-0.53698 -1.071944,-0.74615 -1.459605,-0.20916 -4.329441,-0.60274 -7.228053,-1.43907 -2.898611,-0.83633 -5.825847,-2.11546 -8.343209,-4.03003 -2.517362,-1.91457 -4.624632,-4.46461 -6.256613,-7.53093 -1.631981,-3.06632 -2.788451,-6.64875 -3.221804,-10.452 -0.433354,-3.80326 -0.143457,-7.82703 0.529111,-10.88851 0.672569,-3.06148 1.727792,-5.16033 2.667101,-6.72585 0.93931,-1.56553 1.762617,-2.59756 2.191004,-3.14235 0.428386,-0.5448 0.461871,-0.6024 0.124045,-1.73191 -0.337826,-1.12951 -1.047088,-3.33109 -0.954913,-5.89974 0.09217,-2.56866 0.985926,-5.5041 1.510827,-6.99246 0.524902,-1.48836 0.680695,-1.52935 0.79142,-1.55394 0.110724,-0.0246 0.176313,-0.0328 1.348914,-0.0287 1.172601,0.004 3.452074,0.0205 6.071927,1.02914 2.619854,1.00867 5.579886,3.00935 7.092714,4.00549 1.512828,0.99613 1.57838,0.98794 4.034229,0.52464 2.455851,-0.46329 7.301781,-1.38164 12.164291,-1.36108 4.86251,0.0206 9.74124,0.97991 12.2216,1.44723 2.48036,0.46731 2.56231,0.44273 3.84553,-0.43465 1.28322,-0.87738 3.76768,-2.60748 6.158,-3.64884 2.39032,-1.04137 4.68619,-1.39395 6.10069,-1.5374 1.41449,-0.14346 1.94746,-0.0779 2.22202,-0.004 0.27456,0.074 0.29092,0.15593 0.69682,1.34081 0.4059,1.18488 1.20126,3.47255 1.38567,5.84223 0.18441,2.36968 -0.24197,4.82135 -0.53307,6.26037 -0.2911,1.43902 -0.44689,1.8654 -0.50415,2.10736 -0.0573,0.24196 -0.0162,0.29938 0.82835,1.32435 0.84459,1.02497 2.4927,3.01746 3.52576,5.7029 1.03306,2.68544 1.45124,6.06364 1.5168,8.95813 0.0656,2.89449 -0.22143,5.30515 -0.65602,7.72816 -0.4346,2.42301 -1.01677,4.85827 -2.02124,7.00244 -1.00447,2.14417 -2.43119,3.99726 -3.78004,5.5921 -1.34886,1.59484 -2.61978,2.93136 -4.71065,4.12439 -2.09088,1.19304 -5.0017,2.24258 -7.7281,2.98467 -2.72639,0.74208 -5.26825,1.17666 -6.54344,1.4187 -1.27518,0.24204 -1.28338,0.29122 -0.84863,0.74632 0.43474,0.45511 1.31211,1.31606 2.01308,2.94785 0.70098,1.63179 1.22574,4.03426 1.41839,6.74016 0.19265,2.7059 0.0533,5.71514 -0.0117,9.12577 -0.065,3.41063 -0.0555,7.22245 -0.0461,11.03406"
       id="path1093"
       inkscape:path-effect="#path-effect1095"
       inkscape:original-d="m 95.509123,200.80557 -0.104359,-14.43718 c 0,0 -3.791964,0.24084 -5.688416,0.36085 -2.14704,-0.0425 -4.294228,-0.0852 -6.44182,-0.12824 -2.033066,-1.25751 -4.066291,-2.51524 -6.099903,-3.77331 -0.753146,-1.61419 -1.506536,-3.22858 -2.260222,-4.8433 -1.182552,-1.80876 -2.365332,-3.61771 -3.548414,-5.42698 -1.44927,-0.98542 -2.898755,-1.97108 -4.348546,-2.95702 -0.185267,-0.54475 -0.370801,-1.08976 -0.556616,-1.63505 0.475726,-0.23165 0.951159,-0.46357 1.426323,-0.69577 0.893195,-0.0461 1.786079,-0.0925 2.678706,-0.13916 1.125122,0.38296 2.249924,0.76563 3.374473,1.14802 1.169278,1.12454 2.338206,2.24874 3.506935,3.37272 0.617115,0.91698 1.233925,1.83364 1.850477,2.75004 0.370875,0.94802 0.741452,1.89571 1.111778,2.84318 0.781454,0.92052 1.562583,1.84069 2.343485,2.76064 0.522111,0.2438 1.043916,0.48731 1.565477,0.73056 1.277765,0.15641 2.555177,0.31254 3.83239,0.46841 0.985866,-0.0374 1.971403,-0.075 2.956713,-0.11282 0.341058,0.12989 0.681826,0.2595 1.022333,0.38885 0.619685,0.32172 1.239068,0.64315 1.858203,0.96432 0.586057,0.50873 1.171572,1.01696 1.757321,1.52535 0.0057,-1.96377 0.01112,-3.9261 0.01626,-5.88963 0.288158,-1.56828 0.576025,-3.13676 0.863621,-4.70555 0.922756,-1.00011 1.84521,-2.00046 2.767404,-3.00109 -0.04894,-0.0244 -0.09809,-0.0489 -0.147594,-0.0738 -2.86968,-0.39332 -5.739516,-0.7869 -8.60969,-1.18076 -2.927075,-1.2789 -5.85431,-2.55803 -8.781879,-3.83746 -2.107072,-2.54986 -4.214337,-5.09991 -6.321919,-7.65027 -1.156241,-3.5823 -2.312711,-7.16473 -3.469479,-10.7475 0.290184,-4.02367 0.580082,-8.04744 0.86971,-12.07158 1.055544,-2.09867 2.11077,-4.19752 3.165742,-6.2967 0.823617,-1.0318 1.646926,-2.06383 2.469975,-3.09616 0.03376,-0.0573 0.06724,-0.11491 0.100434,-0.17279 -0.709014,-2.20138 -1.418273,-4.40296 -2.127823,-6.60485 0.894061,-2.93527 1.787811,-5.87071 2.681302,-8.80648 0.156073,-0.0407 0.311865,-0.0817 0.467383,-0.12299 0.06587,-0.008 0.131471,-0.0161 0.196793,-0.0246 2.279837,0.0167 4.559309,0.0331 6.83855,0.0491 2.960427,2.00104 5.920461,4.00172 8.880276,6.00217 0.06591,-0.008 0.131474,-0.0161 0.196795,-0.0246 4.846398,-0.9181 9.692328,-1.83645 14.538058,-2.75509 4.87919,0.95966 9.75792,1.919 14.63646,2.87809 0.0823,-0.0244 0.16428,-0.0489 0.246,-0.0738 2.48483,-1.72989 4.96929,-3.45999 7.45352,-5.19041 2.29624,-0.35231 4.59211,-0.70489 6.88775,-1.05776 0.53327,0.0659 1.06624,0.13148 1.59895,0.1968 0.0167,0.0823 0.0331,0.16426 0.0491,0.24598 0.79566,2.28805 1.59101,4.57572 2.38611,6.86315 -0.42611,2.45204 -0.85249,4.9037 -1.27915,7.35513 -0.15552,0.42668 -0.31132,0.85306 -0.46739,1.27917 0.0412,0.0577 0.0823,0.11506 0.123,0.17218 1.64845,1.99285 3.29656,3.98533 4.94442,5.97758 0.41847,3.37863 0.83664,6.75683 1.25456,10.13483 -0.28672,2.41105 -0.5737,4.82171 -0.86098,7.23214 -0.58191,2.43563 -1.16408,4.87089 -1.74653,7.30594 -1.42651,1.85344 -2.85322,3.70654 -4.28025,5.55939 -1.2707,1.33686 -2.54163,2.67337 -3.81285,4.00965 -2.91069,1.04987 -5.82151,2.0994 -8.73269,3.14869 -2.54168,0.43487 -5.08354,0.86945 -7.62572,1.30375 -0.008,0.0495 -0.0161,0.0987 -0.0246,0.1476 0.87765,0.86125 1.75501,1.72221 2.63211,2.5829 0.52506,2.40284 1.04983,4.8053 1.57433,7.20754 -0.13911,3.00962 -0.27851,6.01886 -0.41818,9.02787 0.009,3.81224 0.0192,7.62406 0.0283,11.43567"
       sodipodi:nodetypes="ccccccccccccccccccccccccccccccccccccccccccccccccccccccccccccccccc" />
  </g>
</svg>
