<?xml version="1.0" encoding="UTF-8" standalone="no"?>
<svg
   xmlns:dc="http://purl.org/dc/elements/1.1/"
   xmlns:cc="http://creativecommons.org/ns#"
   xmlns:rdf="http://www.w3.org/1999/02/22-rdf-syntax-ns#"
   xmlns:svg="http://www.w3.org/2000/svg"
   xmlns="http://www.w3.org/2000/svg"
   xmlns:sodipodi="http://sodipodi.sourceforge.net/DTD/sodipodi-0.dtd"
   xmlns:inkscape="http://www.inkscape.org/namespaces/inkscape"
   width="152.98959mm"
   height="153.16855mm"
   viewBox="0 0 152.98961 153.16855"
   version="1.1"
   id="svg8"
   inkscape:version="1.0.1 (3bc2e813f5, 2020-09-07)"
   sodipodi:docname="pull-request.svg">
  <defs
     id="defs2">
    <inkscape:path-effect
       effect="bspline"
       id="path-effect966"
       is_visible="true"
       lpeversion="1"
       weight="33.333333"
       steps="2"
       helper_size="0"
       apply_no_weight="true"
       apply_with_weight="true"
       only_selected="false" />
    <inkscape:path-effect
       effect="bspline"
       id="path-effect962"
       is_visible="true"
       lpeversion="1"
       weight="33.333333"
       steps="2"
       helper_size="0"
       apply_no_weight="true"
       apply_with_weight="true"
       only_selected="false" />
  </defs>
  <sodipodi:namedview
     id="base"
     pagecolor="#ffffff"
     bordercolor="#666666"
     borderopacity="1.0"
     inkscape:pageopacity="0.0"
     inkscape:pageshadow="2"
     inkscape:zoom="0.97646729"
     inkscape:cx="95.525974"
     inkscape:cy="237.89669"
     inkscape:document-units="mm"
     inkscape:current-layer="layer1"
     inkscape:document-rotation="0"
     showgrid="false"
     fit-margin-top="0"
     fit-margin-left="0"
     fit-margin-right="0"
     fit-margin-bottom="0"
     inkscape:window-width="1920"
     inkscape:window-height="1027"
     inkscape:window-x="-8"
     inkscape:window-y="-8"
     inkscape:window-maximized="1"
     lock-margins="false" />
  <metadata
     id="metadata5">
    <rdf:RDF>
      <cc:Work
         rdf:about="">
        <dc:format>image/svg+xml</dc:format>
        <dc:type
           rdf:resource="http://purl.org/dc/dcmitype/StillImage" />
        <dc:title></dc:title>
      </cc:Work>
    </rdf:RDF>
  </metadata>
  <g
     inkscape:label="Layer 1"
     inkscape:groupmode="layer"
     id="layer1"
     transform="translate(-63.422952,-16.898384)">
    <path
       d="m 191.72321,132.0939 c 0,0 0,-48.82247 0,-64.139325 0,-15.316859 -15.31687,-30.633715 -30.63373,-30.633715 -10.21123,0 -10.21123,0 -10.21123,0 V 16.898384 L 120.24454,47.532098 150.87825,78.16581 V 57.743335 c 0,0 5.10562,0 10.21123,0 5.10563,0 10.21125,5.10562 10.21125,10.21124 0,5.105621 0,64.139325 0,64.139325 -6.06294,3.5101 -10.21125,10.05168 -10.21125,17.55056 0,11.3281 9.0944,20.42248 20.42248,20.42248 11.3281,0 20.42248,-9.09438 20.42248,-20.42248 0,-7.49888 -4.14832,-14.04046 -10.21123,-17.55056 z m -10.21125,27.76181 c -5.58426,0 -10.21123,-4.62698 -10.21123,-10.21125 0,-5.58426 4.62697,-10.21123 10.21123,-10.21123 5.58427,0 10.21125,4.62697 10.21125,10.21123 0,5.58427 -4.62698,10.21125 -10.21125,10.21125 z M 99.822065,27.109622 c -11.32809,0 -20.42248,9.094383 -20.42248,20.422476 0,7.498877 4.14832,14.040452 10.21124,17.550565 v 66.851687 c -6.06292,3.51011 -10.21124,10.05168 -10.21124,17.55055 0,11.32811 9.09439,20.42248 20.42248,20.42248 11.328085,0 20.422475,-9.09437 20.422475,-20.42248 0,-7.49887 -4.14832,-14.04044 -10.21125,-17.55055 V 65.082663 c 6.06293,-3.510113 10.21125,-10.051688 10.21125,-17.550565 0,-11.328093 -9.09439,-20.422476 -20.422475,-20.422476 z m 0,132.746088 c -5.58427,0 -10.21124,-4.62698 -10.21124,-10.21125 0,-5.58426 4.62697,-10.21123 10.21124,-10.21123 5.584275,0 10.211225,4.62697 10.211225,10.21123 0,5.58427 -4.62695,10.21125 -10.211225,10.21125 z m 0,-102.112375 c -5.58427,0 -10.21124,-4.626967 -10.21124,-10.211237 0,-5.58427 4.62697,-10.211238 10.21124,-10.211238 5.584275,0 10.211225,4.626968 10.211225,10.211238 0,5.58427 -4.62695,10.211237 -10.211225,10.211237 z"
       id="path1000"
       style="stroke-width:0.159551" />
  </g>
</svg>
