<?xml version="1.0" encoding="UTF-8" standalone="no"?>
<svg
   xmlns:dc="http://purl.org/dc/elements/1.1/"
   xmlns:cc="http://creativecommons.org/ns#"
   xmlns:rdf="http://www.w3.org/1999/02/22-rdf-syntax-ns#"
   xmlns:svg="http://www.w3.org/2000/svg"
   xmlns="http://www.w3.org/2000/svg"
   xmlns:sodipodi="http://sodipodi.sourceforge.net/DTD/sodipodi-0.dtd"
   xmlns:inkscape="http://www.inkscape.org/namespaces/inkscape"
   width="64.438271mm"
   height="90.00634mm"
   viewBox="0 0 64.438271 90.00634"
   version="1.1"
   id="svg8"
   inkscape:version="1.0.1 (3bc2e813f5, 2020-09-07)"
   sodipodi:docname="banana2.svg">
  <style
     id="style1053"></style>
  <defs
     id="defs2">
    <inkscape:path-effect
       effect="bspline"
       id="path-effect996"
       is_visible="true"
       lpeversion="1"
       weight="33.333333"
       steps="2"
       helper_size="0"
       apply_no_weight="true"
       apply_with_weight="true"
       only_selected="false" />
    <inkscape:path-effect
       effect="bspline"
       id="path-effect924"
       is_visible="true"
       lpeversion="1"
       weight="33.333333"
       steps="2"
       helper_size="0"
       apply_no_weight="true"
       apply_with_weight="true"
       only_selected="false" />
    <inkscape:path-effect
       effect="bspline"
       id="path-effect914"
       is_visible="true"
       lpeversion="1"
       weight="33.333333"
       steps="2"
       helper_size="0"
       apply_no_weight="true"
       apply_with_weight="true"
       only_selected="false" />
    <inkscape:path-effect
       effect="bspline"
       id="path-effect902"
       is_visible="true"
       lpeversion="1"
       weight="33.333333"
       steps="2"
       helper_size="0"
       apply_no_weight="true"
       apply_with_weight="true"
       only_selected="false" />
    <inkscape:path-effect
       effect="bspline"
       id="path-effect888"
       is_visible="true"
       lpeversion="1"
       weight="33.333333"
       steps="2"
       helper_size="0"
       apply_no_weight="true"
       apply_with_weight="true"
       only_selected="false" />
    <inkscape:path-effect
       effect="bspline"
       id="path-effect884"
       is_visible="true"
       lpeversion="1"
       weight="33.333333"
       steps="2"
       helper_size="0"
       apply_no_weight="true"
       apply_with_weight="true"
       only_selected="false" />
    <inkscape:path-effect
       effect="bspline"
       id="path-effect878"
       is_visible="true"
       lpeversion="1"
       weight="33.333333"
       steps="2"
       helper_size="0"
       apply_no_weight="true"
       apply_with_weight="true"
       only_selected="false" />
    <inkscape:path-effect
       effect="bspline"
       id="path-effect870"
       is_visible="true"
       lpeversion="1"
       weight="33.333333"
       steps="2"
       helper_size="0"
       apply_no_weight="true"
       apply_with_weight="true"
       only_selected="false" />
  </defs>
  <sodipodi:namedview
     id="base"
     pagecolor="#ffffff"
     bordercolor="#666666"
     borderopacity="1.0"
     inkscape:pageopacity="0.0"
     inkscape:pageshadow="2"
     inkscape:zoom="0.98994949"
     inkscape:cx="-9.1256798"
     inkscape:cy="175.14291"
     inkscape:document-units="mm"
     inkscape:current-layer="g1051"
     inkscape:document-rotation="0"
     showgrid="false"
     fit-margin-top="0"
     fit-margin-left="0"
     fit-margin-right="0"
     fit-margin-bottom="0"
     inkscape:window-width="1920"
     inkscape:window-height="1027"
     inkscape:window-x="-8"
     inkscape:window-y="-8"
     inkscape:window-maximized="1" />
  <metadata
     id="metadata5">
    <rdf:RDF>
      <cc:Work
         rdf:about="">
        <dc:format>image/svg+xml</dc:format>
        <dc:type
           rdf:resource="http://purl.org/dc/dcmitype/StillImage" />
        <dc:title></dc:title>
      </cc:Work>
    </rdf:RDF>
  </metadata>
  <g
     inkscape:label="Layer 1"
     inkscape:groupmode="layer"
     id="layer1"
     transform="translate(477.19965,-332.46558)" />
  <g
     inkscape:groupmode="layer"
     id="layer2"
     inkscape:label="Layer 2"
     transform="translate(477.19965,-332.46558)">
    <g
       id="g1045"
       transform="translate(-873.55097,25.327899)">
      <g
         id="g1051"
         transform="translate(-109.01156,80.972096)"
         style="stroke:none">
        <path
           style="fill:#ffcc00;stroke:none;stroke-width:0.202639"
           d="m 553.21503,315.68298 c -1.35855,-1.32702 -1.50183,-2.85451 -2.53575,-4.23586 -0.46839,-0.59104 -0.68033,-1.50853 -1.09472,-1.98198 -0.49975,-0.98687 -1.13085,-1.83365 -1.53477,-2.83761 -0.57946,-0.72863 -0.83259,-1.72695 -1.3894,-2.38101 -0.6306,-0.74061 -0.97773,-1.7322 -1.48881,-2.3096 -0.75062,-0.94544 -1.41502,-1.92515 -2.01452,-2.60334 -0.69125,-0.69404 -1.81427,-1.69116 -2.41384,-2.20239 -0.1972,-0.2188 -0.13468,-0.51049 0.0563,-0.71114 0.2506,-0.3378 1.43377,-1.03734 1.64571,-1.31739 0.82269,-0.82764 1.18252,-1.22173 2.29435,-2.3869 0.59571,-0.69659 1.74375,-2.29814 1.74375,-2.29814 1.16515,-1.56535 1.90144,-3.15025 2.35187,-4.18841 0.20961,-0.52675 0.47547,-1.22136 0.58002,-1.41796 0.16976,-0.28882 0.25514,-0.68993 0.28319,-0.79274 0.0273,-0.11691 0.0932,-0.32843 0.12072,-0.45071 0.0603,-0.28179 0.1305,-0.57274 0.1908,-0.80586 0.1428,-0.50539 0.53305,-0.53734 0.88395,-0.1234 0.20728,0.2445 0.37063,0.43397 0.58277,0.71117 4.62318,6.13845 5.83684,6.89665 6.52359,14.09508 0.14557,3.89134 0.89753,5.05394 -0.36463,12.83661 -0.39444,2.29505 -0.15212,1.36249 -0.66362,3.28232 -0.32621,0.95457 -0.42699,1.14399 -0.85224,1.77226 -0.60384,0.7292 -0.94478,0.7987 -1.61381,0.83594 -0.79604,-0.0698 -1.02027,-0.23831 -1.29092,-0.48894 z"
           id="path990"
           sodipodi:nodetypes="cccccccccccccccccsccccccc" />
        <path
           style="fill:#ffcc00;stroke:none;stroke-width:0.026889"
           d="m 555.41371,281.91385 c -0.30387,-0.27143 -0.64564,-0.59836 -1.59747,-1.41539 -0.59214,-0.5083 -1.43237,-1.14485 -1.86103,-2.16062 -0.11481,-0.84768 0.0764,-1.36946 0.41884,-2.65168 0.15811,-0.59202 0.3913,-1.80172 0.59806,-2.23815 0.3269,-0.51337 0.85027,-0.40654 1.5829,-0.37872 1.97784,0.0722 4.46174,0.56069 6.91029,-0.0507 2.6939,-0.79761 3.29171,-0.87648 3.92944,-3.03222 0.41785,-1.50361 -0.66443,-6.42549 1.81062,-6.67691 0,0 1.28087,-0.33805 1.95886,1.65779 0.5682,1.53665 0.34555,2.66951 0.63693,4.59698 -0.0356,2.61378 -0.36455,3.20681 -0.68751,4.81605 -0.64579,3.21779 -2.05908,3.84677 -4.25641,5.60699 -0.49252,0.39456 -2.0812,1.33001 -2.64833,1.53244 -2.48437,0.88677 -0.31648,0.53635 -4.56101,0.65159 l -1.31032,0.0357 c 0,0 -0.61803,-0.0197 -0.92381,-0.29299 z"
           id="path1002"
           sodipodi:nodetypes="sscscccccccsssscss" />
        <path
           style="fill:#ffcc00;stroke:none;stroke-width:0.0946428"
           d="m 515.58596,302.65026 c -1.99641,-0.0866 -4.3469,-0.51824 -6.78647,-1.24621 l -1.4644,-0.43696 -0.98605,-0.97546 -0.98616,-0.97545 0.22695,-1.43028 c 0.12488,-0.78667 0.2333,-1.43511 0.24097,-1.441 0.1897,-1.2929 2.06956,-1.51612 2.06956,-1.51612 1.48306,-0.80719 3.33721,-1.50215 6.3204,-3.41376 9.90544,-7.78567 12.29149,-12.55446 14.72436,-18.54467 1.61568,-3.97804 2.30684,-7.24365 2.27301,-10.73968 -0.0266,-2.75049 -0.51193,-5.21039 -2.00088,-10.14101 -1.18275,-3.91664 -1.33795,-4.57478 -1.36912,-5.80375 -0.0139,-0.54625 -0.13076,-1.88867 -0.13076,-1.88867 0.0622,-2.23749 0.0473,-2.56511 0.87729,-4.29373 3.26657,0.0725 2.41877,0.17557 3.26657,0.0725 0.79354,-0.0964 1.03707,-0.16546 1.45841,-0.41334 1.17326,-0.69012 1.73356,-2.12074 1.70123,-4.34332 l -0.0148,-1.00119 1.19452,3.26869 1.19462,3.26869 1.38112,1.22067 c 3.85161,3.40402 5.90489,5.98036 7.86217,9.8651 1.80981,3.59195 2.72272,6.94572 3.05168,11.20974 0.16596,2.15911 0.16905,3.46501 0.0117,5.33253 -0.52778,6.25225 -3.64658,14.74766 -7.4827,20.38267 -4.05584,5.95761 -10.26381,10.56483 -17.02049,12.63156 -2.28309,0.69835 -3.33709,0.89276 -6.21719,1.14678 -1.47557,0.13017 -3.00376,0.22286 -3.39603,0.20567 z"
           id="path988"
           sodipodi:nodetypes="cscccscccssssccssccccssccssscc" />
        <path
           style="fill:#ffcc00;stroke:none;stroke-width:0.26769"
           d="m 527.42525,236.45101 c -0.28945,-0.14653 -0.98946,-0.62228 -1.55557,-1.05721 -0.56613,-0.43493 -1.15041,-0.78206 -1.29841,-0.77139 -0.54219,-0.20479 -0.7691,-0.74273 -1.26724,-0.9761 -0.13775,0.0106 -0.597,-0.25568 -1.02052,-0.59171 -0.50022,-0.45387 -0.23963,-1.47789 0.0725,-1.86244 0.65506,-0.78778 1.78038,-1.23271 2.58105,-1.70896 1.40258,-0.82928 1.93068,-1.32241 2.53274,-1.73398 0.53024,-0.37191 1.77325,-1.33027 2.48525,-1.58364 0.82396,0.24944 0.98742,1.09005 1.36578,1.70265 0.55754,0.6201 0.62715,1.06334 0.96309,1.65092 0.42012,0.62817 0.37285,1.51607 -0.60852,4.05591 -0.815,2.10931 -1.14435,2.67128 -1.58691,2.70788 -0.30713,0.0256 -0.91364,0.13351 -1.34773,0.24034 -0.43407,0.10678 -1.02608,0.0739 -1.31552,-0.0723 z"
           id="path992"
           sodipodi:nodetypes="sscccccccccscsss" />
      </g>
    </g>
  </g>
</svg>
