<?xml version="1.0" encoding="UTF-8" standalone="no"?>
<svg
   xmlns:dc="http://purl.org/dc/elements/1.1/"
   xmlns:cc="http://creativecommons.org/ns#"
   xmlns:rdf="http://www.w3.org/1999/02/22-rdf-syntax-ns#"
   xmlns:svg="http://www.w3.org/2000/svg"
   xmlns="http://www.w3.org/2000/svg"
   xmlns:sodipodi="http://sodipodi.sourceforge.net/DTD/sodipodi-0.dtd"
   xmlns:inkscape="http://www.inkscape.org/namespaces/inkscape"
   width="152.98958mm"
   height="152.98958mm"
   viewBox="0 0 152.9896 152.98958"
   version="1.1"
   id="svg8"
   inkscape:version="1.0.1 (3bc2e813f5, 2020-09-07)"
   sodipodi:docname="merged.svg">
  <defs
     id="defs2">
    <inkscape:path-effect
       effect="bspline"
       id="path-effect966"
       is_visible="true"
       lpeversion="1"
       weight="33.333333"
       steps="2"
       helper_size="0"
       apply_no_weight="true"
       apply_with_weight="true"
       only_selected="false" />
    <inkscape:path-effect
       effect="bspline"
       id="path-effect962"
       is_visible="true"
       lpeversion="1"
       weight="33.333333"
       steps="2"
       helper_size="0"
       apply_no_weight="true"
       apply_with_weight="true"
       only_selected="false" />
  </defs>
  <sodipodi:namedview
     id="base"
     pagecolor="#ffffff"
     bordercolor="#666666"
     borderopacity="1.0"
     inkscape:pageopacity="0.0"
     inkscape:pageshadow="2"
     inkscape:zoom="0.69046664"
     inkscape:cx="-137.36117"
     inkscape:cy="286.81405"
     inkscape:document-units="mm"
     inkscape:current-layer="layer1"
     inkscape:document-rotation="0"
     showgrid="false"
     fit-margin-top="0"
     fit-margin-left="0"
     fit-margin-right="0"
     fit-margin-bottom="0"
     inkscape:window-width="1920"
     inkscape:window-height="1027"
     inkscape:window-x="-8"
     inkscape:window-y="-8"
     inkscape:window-maximized="1" />
  <metadata
     id="metadata5">
    <rdf:RDF>
      <cc:Work
         rdf:about="">
        <dc:format>image/svg+xml</dc:format>
        <dc:type
           rdf:resource="http://purl.org/dc/dcmitype/StillImage" />
        <dc:title></dc:title>
      </cc:Work>
    </rdf:RDF>
  </metadata>
  <g
     inkscape:label="Layer 1"
     inkscape:groupmode="layer"
     id="layer1"
     transform="translate(-227.58562,-15.916002)">
    <circle
       style="opacity:1;fill:none;stroke:#000000;stroke-width:11.8109;stroke-miterlimit:4;stroke-dasharray:none"
       id="path847-9"
       cx="349.61292"
       cy="93.819031"
       r="16.669947" />
    <circle
       style="opacity:1;fill:none;stroke:#000000;stroke-width:11.8109;stroke-miterlimit:4;stroke-dasharray:none"
       id="path847"
       cx="259.72034"
       cy="38.967617"
       r="16.669947" />
    <circle
       style="fill:none;stroke:#000000;stroke-width:11.8109;stroke-miterlimit:4;stroke-dasharray:none"
       id="path847-5"
       cx="259.78738"
       cy="146.26341"
       r="16.669947" />
    <rect
       style="opacity:1;fill:#000000;fill-opacity:1;stroke:none;stroke-width:9.89541;stroke-miterlimit:4;stroke-dasharray:none"
       id="rect864"
       width="21.53657"
       height="80.164421"
       x="248.94658"
       y="52.093517" />
    <path
       id="path964"
       style="fill:#000000;fill-opacity:1;stroke:#000000;stroke-width:0.283084px;stroke-linecap:butt;stroke-linejoin:miter;stroke-opacity:1"
       d="m 337.79472,81.373041 c -4.27074,4.305156 1.26415,22.891039 0.1197,23.198529 -1.14445,0.30749 -6.67928,0.34166 -8.81465,0.37583 -2.13538,0.0341 -4.66359,-0.0341 -7.29437,-0.32453 -2.63077,-0.29039 -5.36398,-0.80286 -8.02894,-1.50324 -2.66494,-0.70039 -5.26149,-1.58868 -7.89229,-2.59657 -2.63079,-1.007891 -5.29567,-2.135324 -8.18271,-3.63861 -2.88704,-1.503276 -5.99607,-3.382348 -8.6952,-5.158969 -2.69913,-1.776622 -4.98819,-3.450713 -7.1065,-5.141922 -2.11831,-1.69121 -4.06572,-3.399466 -5.73987,-4.954013 -1.67414,-1.554548 -3.07492,-2.95532 -4.91992,-5.312771 -1.84501,-2.357452 -4.13408,-5.671471 -6.04743,-9.036827 -1.91333,-3.365354 -3.98394,-8.265033 -3.98394,-8.265033 l 8.39973,-3.727462 m 0,0 9.54228,-6.698528 c 1.43496,3.689907 5.58486,8.150893 7.34443,10.303347 1.75956,2.152455 3.46783,4.065702 5.26156,5.756897 1.79375,1.691197 3.67284,3.160297 5.60323,4.526924 1.9304,1.366627 3.913,2.631392 5.17972,3.435904 1.26671,0.804511 1.81984,1.150239 2.63988,1.66276 0.82003,0.51252 1.90685,1.191761 3.83432,2.043979 1.92748,0.852218 4.69442,1.877013 7.56436,2.645714 2.86996,0.7687 5.84232,1.281177 8.18269,1.656998 2.34037,0.375821 8.25102,0.358734 9.9764,0.478292 1.72537,0.119559 0.58077,2.152402 3.05751,0.273298"
       sodipodi:nodetypes="csssssssssssccccsssssssssc" />
  </g>
</svg>
