<?xml version="1.0" encoding="UTF-8" standalone="no"?>
<svg
   xmlns:dc="http://purl.org/dc/elements/1.1/"
   xmlns:cc="http://creativecommons.org/ns#"
   xmlns:rdf="http://www.w3.org/1999/02/22-rdf-syntax-ns#"
   xmlns:svg="http://www.w3.org/2000/svg"
   xmlns="http://www.w3.org/2000/svg"
   xmlns:sodipodi="http://sodipodi.sourceforge.net/DTD/sodipodi-0.dtd"
   xmlns:inkscape="http://www.inkscape.org/namespaces/inkscape"
   width="100mm"
   height="100mm"
   viewBox="0 0 100 100"
   version="1.1"
   id="svg2852"
   inkscape:version="1.0.1 (3bc2e813f5, 2020-09-07)"
   sodipodi:docname="banana-line.svg">
  <defs
     id="defs2846">
    <inkscape:path-effect
       effect="bspline"
       id="path-effect2915"
       is_visible="true"
       lpeversion="1"
       weight="33.333333"
       steps="2"
       helper_size="0"
       apply_no_weight="true"
       apply_with_weight="true"
       only_selected="false" />
    <inkscape:path-effect
       effect="bspline"
       id="path-effect2911"
       is_visible="true"
       lpeversion="1"
       weight="33.333333"
       steps="2"
       helper_size="0"
       apply_no_weight="true"
       apply_with_weight="true"
       only_selected="false" />
  </defs>
  <sodipodi:namedview
     id="base"
     pagecolor="#ffffff"
     bordercolor="#666666"
     borderopacity="1.0"
     inkscape:pageopacity="0.0"
     inkscape:pageshadow="2"
     inkscape:zoom="0.98994949"
     inkscape:cx="156.81709"
     inkscape:cy="114.95518"
     inkscape:document-units="mm"
     inkscape:current-layer="layer3"
     inkscape:document-rotation="0"
     showgrid="false"
     fit-margin-top="0"
     fit-margin-left="0"
     fit-margin-right="0"
     fit-margin-bottom="0"
     inkscape:window-width="1920"
     inkscape:window-height="1027"
     inkscape:window-x="-8"
     inkscape:window-y="-8"
     inkscape:window-maximized="1" />
  <metadata
     id="metadata2849">
    <rdf:RDF>
      <cc:Work
         rdf:about="">
        <dc:format>image/svg+xml</dc:format>
        <dc:type
           rdf:resource="http://purl.org/dc/dcmitype/StillImage" />
        <dc:title></dc:title>
      </cc:Work>
    </rdf:RDF>
  </metadata>
  <g
     inkscape:label="Layer 1"
     inkscape:groupmode="layer"
     id="layer1"
     transform="translate(-58.583838,-115.29586)" />
  <g
     inkscape:groupmode="layer"
     id="layer3"
     inkscape:label="Layer 2"
     transform="translate(-58.583838,-115.29586)">
    <path
       style="fill:none;stroke:#000000;stroke-width:6;stroke-linecap:butt;stroke-linejoin:miter;stroke-miterlimit:4;stroke-dasharray:none;stroke-opacity:1"
       d="m 71.754547,178.06955 c 0.70856,0.44157 1.450653,0.90404 1.75299,1.56664 0.302337,0.6626 0.23261,1.55907 0.403744,2.72777 0.171133,1.1687 0.559845,2.35443 0.940235,3.39992 0.38039,1.04549 0.868724,2.26819 1.541491,3.21809 0.672767,0.9499 1.40541,1.49083 2.261019,2.26589 0.855609,0.77506 1.903592,1.85777 3.318916,2.49113 1.415323,0.63336 3.235693,0.85668 5.217798,0.62456 1.982106,-0.23213 4.125839,-0.9196 5.763199,-1.5581 1.637359,-0.6385 2.768217,-1.22796 3.743216,-2.22303 0.974999,-0.99508 1.79415,-2.39577 2.539364,-3.57333 0.745214,-1.17756 1.416391,-2.13182 1.751351,-3.60842 0.33496,-1.47661 0.33362,-3.47565 0.39508,-5.67007 0.0615,-2.19441 0.18572,-4.5839 0.17072,-7.35152 -0.015,-2.76762 -0.1693,-5.91304 -0.12074,-9.66836 0.0486,-3.75532 0.29999,-8.12006 0.49708,-11.24617 0.1971,-3.12612 0.33983,-5.01322 0.85413,-6.65441 0.5143,-1.64119 1.57626,-3.31345 2.20603,-4.03726 0.62977,-0.72381 1.45225,-1.21742 1.9751,-1.57251 0.52286,-0.35508 0.88252,-0.65352 1.2422,-0.95197 1.01755,-1.10175 2.03509,-2.20348 2.2062,-3.35084 0.17111,-1.14736 -0.63905,-2.57846 -1.64152,-4.2638 -1.00247,-1.68534 -3.19534,-5.30288 -0.4705,-6.83788 2.72485,-1.53501 10.0024,-1.58818 12.49486,0.42362 2.49247,2.0118 0.19978,6.08815 -0.80542,8.5828 -1.00521,2.49466 -0.72287,3.40702 -0.39382,4.12205 0.32904,0.71504 0.70471,1.23288 1.33695,1.58254 0.63224,0.34966 1.52038,0.53116 2.58054,1.40255 1.06016,0.8714 2.29094,2.4313 2.74808,4.52038 0.45714,2.08907 0.14045,4.70663 -0.007,7.23891 -0.14702,2.53228 -0.12439,4.97892 -0.10966,7.57732 0.0147,2.59839 0.0216,5.34827 0.025,7.86716 0.003,2.51889 0.003,4.80665 0.0261,7.33233 0.0227,2.52567 0.068,5.2891 0.22654,7.996 0.15858,2.70689 0.43039,5.35706 0.79285,7.47501 0.36246,2.11795 0.81547,3.70352 1.43841,5.54964 0.62294,1.84613 1.41573,3.95268 2.35583,5.71951 0.94011,1.76682 2.02736,3.19384 2.80886,4.16784 0.78149,0.97401 1.25717,1.49499 2.084,2.00458 0.82682,0.50959 2.00467,1.00791 3.11455,1.14374 1.10987,0.13582 2.15182,-0.0907 3.72607,-0.84954 1.57424,-0.75885 3.68074,-2.04993 4.73402,-2.69549 1.05328,-0.64556 1.05328,-0.64556 1.15528,-0.67956 0.102,-0.034 0.30588,-0.10197 0.88359,0.10201 0.57771,0.20398 1.52905,0.67965 2.01592,0.9742 0.48687,0.29455 0.5095,0.40781 0.52079,0.57768 0.0113,0.16986 0.0113,0.39638 -0.45297,0.56612 -0.46425,0.16973 -1.39294,0.28299 -2.50298,0.90592 -1.11004,0.62294 -2.40115,1.75549 -3.70359,2.68419 -1.30245,0.92871 -2.61621,1.65354 -4.54156,2.28779 -1.92534,0.63425 -4.46227,1.17787 -6.39894,1.39309 -1.93668,0.21523 -3.27309,0.10197 -5.27776,-0.39633 -2.00467,-0.4983 -4.6775,-1.38169 -6.70483,-2.24242 -2.02733,-0.86072 -3.40904,-1.69881 -4.75684,-2.76341 -1.34781,-1.06459 -2.66157,-2.3557 -3.64698,-3.66947 -0.9854,-1.31377 -1.64229,-2.6502 -2.21991,-3.89604 -0.57763,-1.24584 -1.07596,-2.40105 -1.40445,-3.36375 -0.32848,-0.96271 -0.48704,-1.73284 -0.56636,-2.11807 -0.0793,-0.38524 -0.48703,-0.79296 -0.56634,-0.63434 -0.0793,0.15861 -0.23787,0.47573 -0.63428,1.34784 -0.3964,0.87211 -1.03064,2.29913 -1.82342,3.46562 -0.79278,1.16649 -1.74411,2.07253 -2.74076,2.83134 -0.99664,0.75882 -2.03859,1.37039 -2.97864,1.93669 -0.94005,0.56629 -1.778142,1.08727 -2.774755,1.47235 -0.996613,0.38508 -2.151816,0.63424 -3.850692,0.9174 -1.698876,0.28315 -3.941327,0.60027 -5.798751,0.77017 -1.857423,0.16989 -3.329743,0.19252 -4.518946,0.16987 -1.189203,-0.0226 -2.095246,-0.0906 -3.001302,-0.2378 -0.906056,-0.14721 -1.812097,-0.37372 -2.989988,-0.79275 -1.177891,-0.41903 -2.627563,-1.03061 -3.839439,-1.67615 -1.211876,-0.64554 -2.185865,-1.32508 -3.091963,-2.16315 -0.906098,-0.83807 -1.744195,-1.83473 -2.388783,-2.88333 -0.644589,-1.04859 -1.095517,-2.14908 -1.505557,-3.44589 -0.410041,-1.2968 -0.779043,-2.78957 -0.986111,-4.73745 -0.207068,-1.94789 -0.252007,-4.34965 0.115071,-6.56778 0.367078,-2.21813 1.1462,-4.25185 2.09036,-5.05807 0.944161,-0.80622 2.052774,-0.38506 3.161663,0.0362 0,0 -3e-5,0 -3e-5,0 z"
       id="path2909"
       inkscape:path-effect="#path-effect2911"
       inkscape:original-d="m 71.754547,178.06955 c 0,0 1.450608,0.90411 2.125681,1.32471 -0.07007,0.90455 -0.139798,1.80102 -0.221387,2.84633 0.423734,1.29202 0.812444,2.47775 1.152789,3.51648 0.420415,1.05224 0.908748,2.27494 1.421992,3.56041 0.832116,0.61444 1.564762,1.15536 2.303536,1.70074 0.972479,1.0047 2.020464,2.08741 3.030332,3.13075 1.820748,0.2236 3.641117,0.44693 5.461333,0.67001 2.144123,-0.68725 4.287856,-1.37472 6.431446,-2.06249 1.131193,-0.58923 2.262052,-1.17868 3.392722,-1.76844 0.819472,-1.40053 1.638624,-2.80122 2.457563,-4.20226 0.671479,-0.95405 1.342656,-1.90831 2.013606,-2.86288 -9.7e-4,-1.99885 -0.002,-3.99789 -0.004,-5.99731 0.12453,-2.3894 0.24879,-4.77889 0.37279,-7.16881 -0.15403,-3.14534 -0.30832,-6.29076 -0.46289,-9.43664 0.25172,-4.36473 0.50315,-8.72947 0.75432,-13.09475 0.14302,-1.88695 0.28575,-3.77405 0.42823,-5.66154 0.88614,-1.39472 1.9481,-3.06697 2.65757,-4.18485 0.54994,-0.32963 1.37243,-0.82324 2.05824,-1.23525 0.35994,-0.29819 1.07905,-0.89536 1.07905,-0.89536 0,0 2.03536,-2.20323 3.05265,-3.30525 -0.67526,-1.193 -1.48542,-2.6241 -2.02657,-3.57981 -1.4638,-2.41497 -3.65667,-6.0325 -5.48548,-9.04929 7.27843,-0.0529 14.55598,-0.10608 21.83383,-0.15952 -2.29261,4.07695 -4.5853,8.15329 -6.87846,12.22976 0.2826,0.91262 0.56494,1.82498 0.84699,2.73696 0.37593,0.5181 0.7516,1.03595 1.12708,1.55363 0.88891,0.18187 1.77705,0.36337 2.66559,0.54475 1.23185,1.56118 2.46264,3.12108 3.69361,4.68129 -0.31644,2.61801 -0.63312,5.23557 -0.95009,7.85303 0.0229,2.44706 0.0455,4.8937 0.0679,7.34023 0.007,2.75026 0.0139,5.50014 0.0205,8.2498 2.7e-4,2.28812 2.7e-4,4.57588 0,6.86342 0.0456,2.76381 0.0909,5.52724 0.13591,8.29045 0.27209,2.65056 0.5439,5.30073 0.81546,7.95069 0.4533,1.58591 0.90633,3.17148 1.35908,4.75682 0.79309,2.1069 1.58588,4.21345 2.37841,6.31979 1.08757,1.42734 2.17482,2.85436 3.26183,4.28113 0.47595,0.52126 0.95163,1.04224 1.42704,1.56294 1.17818,0.49861 2.35603,0.99694 3.53365,1.49502 1.04225,-0.22625 2.0842,-0.45277 3.1259,-0.67955 2.10691,-1.29091 4.21341,-2.58199 6.31978,-3.87342 2.6e-4,2.6e-4 2.6e-4,2.6e-4 0,0 0.20413,-0.0676 0.40799,-0.13564 0.61159,-0.20387 0.95165,0.47597 1.903,0.95163 2.85409,1.42706 0.0229,0.11353 0.0456,0.22678 0.0679,0.33977 2.8e-4,0.22679 2.8e-4,0.45331 0,0.67955 -0.92846,0.11353 -1.85715,0.22679 -2.78613,0.33978 -1.2909,1.13285 -2.582,2.26541 -3.87341,3.39772 -1.31355,0.72514 -2.62731,1.44998 -3.94137,2.17455 -2.53675,0.5439 -5.07367,1.08754 -7.61091,1.6309 -1.3362,-0.11299 -2.67261,-0.22624 -4.00932,-0.33977 -2.67267,-0.88314 -5.34549,-1.76656 -8.01864,-2.65023 -1.3815,-0.83786 -2.76322,-1.67593 -4.14523,-2.51432 -1.31355,-1.29089 -2.62731,-2.582 -3.94137,-3.87339 -0.65664,-1.33621 -1.31353,-2.67263 -1.97069,-4.00934 -0.49808,-1.15497 -0.99639,-2.31019 -1.495,-3.46568 -0.1583,-0.7699 -0.31685,-1.54003 -0.47569,-2.31046 l -0.40772,-0.40772 c -0.1583,0.31739 -0.31686,0.63451 -0.47568,0.95136 -0.63399,1.42735 -1.26823,2.85437 -1.90273,4.28114 -0.95111,0.90635 -1.90245,1.81238 -2.85409,2.71818 -1.04172,0.61188 -2.08367,1.22346 -3.12591,1.83477 -0.83785,0.52127 -1.675943,1.04225 -2.514319,1.56296 -1.15498,0.24945 -2.310185,0.4986 -3.465682,0.7475 -2.242278,0.31741 -4.484734,0.6345 -6.727506,0.95138 -1.47211,0.0229 -2.944429,0.0456 -4.417048,0.0679 -0.905809,-0.0677 -1.811853,-0.13564 -2.718182,-0.20386 -0.905812,-0.22625 -1.811853,-0.45276 -2.718184,-0.67954 -1.449458,-0.61134 -2.899127,-1.22293 -4.349094,-1.83478 -0.973764,-0.67931 -1.947762,-1.35883 -2.922047,-2.03865 -0.837854,-0.9964 -1.675942,-1.99306 -2.514319,-2.98999 -0.450689,-1.1003 -0.90162,-2.20079 -1.352848,-3.30163 -0.368799,-1.49276 -0.737805,-2.98553 -1.107177,-4.479 -0.04469,-2.40225 -0.08963,-4.80401 -0.134843,-7.20658 0.77943,-2.03357 1.558552,-4.06729 2.337388,-6.10122 1.109112,0.42151 3.326668,1.26379 3.326668,1.26379 z"
       sodipodi:nodetypes="cccccccccccccccccccccccccccccccccccccccccccccccccccccccccccccccccccccccccccscc" />
    <path
       style="fill:none;stroke:#000000;stroke-width:6;stroke-linecap:butt;stroke-linejoin:miter;stroke-miterlimit:4;stroke-dasharray:none;stroke-opacity:1"
       d="m 129.40321,195.6857 c 0.5779,0.0226 1.1555,0.0453 1.77274,0.0283 0.61724,-0.017 1.27412,-0.0736 2.02727,-0.19824 0.75315,-0.12459 1.60257,-0.31713 2.3897,-0.53232 0.78712,-0.21519 1.51197,-0.45303 3.21649,-1.21187 1.70453,-0.75884 4.38864,-2.0386 6.21868,-3.53484 1.83004,-1.49624 2.80596,-3.20891 3.46287,-4.56799 0.6569,-1.35909 0.99472,-2.36449 1.23161,-3.95447 0.2369,-1.58999 0.3728,-3.76443 0.0444,-6.72616 -0.32842,-2.96174 -1.1212,-6.71048 -2.62192,-6.88048 -1.50072,-0.17 -3.70919,3.23898 -5.13628,5.81569 -1.42708,2.57671 -2.07263,4.3208 -3.26749,6.02528 -1.19487,1.70449 -2.93896,3.36931 -4.54154,4.58683 -1.60257,1.21752 -3.06358,1.98766 -4.0772,2.45768 -1.01363,0.47002 -1.57991,0.6399 -2.00461,0.76448 -0.42471,0.12459 -0.70786,0.20387 -0.82676,0.23784 -0.11889,0.034 -0.0736,0.0226 -0.0285,0.0114"
       id="path2913"
       inkscape:path-effect="#path-effect2915"
       inkscape:original-d="m 129.40321,195.6857 c 0.57789,0.0229 1.15549,0.0456 1.73284,0.0679 0.65717,-0.0563 1.31405,-0.11293 1.97068,-0.16989 0.84971,-0.19226 1.69913,-0.38481 2.54831,-0.57761 0.72511,-0.23757 1.44995,-0.47541 2.17454,-0.71352 2.68451,-1.27957 5.36862,-2.55933 8.05263,-3.83945 0.97624,-1.7125 1.95216,-3.42517 2.92787,-5.13821 0.33811,-1.0052 0.67593,-2.0106 1.01349,-3.01633 0.13618,-2.17433 0.27209,-4.34877 0.40773,-6.52364 -0.79256,-3.74866 -1.58534,-7.4974 -2.37841,-11.24649 -2.20825,3.40933 -4.41673,6.81831 -6.62557,10.22718 -0.64532,1.74447 -1.29086,3.48856 -1.93672,5.23249 -1.74394,1.66519 -3.48803,3.33001 -5.2325,4.99467 -1.46077,0.77043 -2.92178,1.54057 -4.38307,2.31045 -0.56603,0.17016 -1.13231,0.34004 -1.69887,0.50966 -0.28287,0.0795 -0.56601,0.15883 -0.84942,0.23784 0.0456,-0.0111 0.0909,-0.0224 0.1359,-0.034"
       sodipodi:nodetypes="ccccccccccccccccc" />
  </g>
</svg>
