<?xml version="1.0" encoding="UTF-8" standalone="no"?>
<svg
   xmlns:dc="http://purl.org/dc/elements/1.1/"
   xmlns:cc="http://creativecommons.org/ns#"
   xmlns:rdf="http://www.w3.org/1999/02/22-rdf-syntax-ns#"
   xmlns:svg="http://www.w3.org/2000/svg"
   xmlns="http://www.w3.org/2000/svg"
   xmlns:sodipodi="http://sodipodi.sourceforge.net/DTD/sodipodi-0.dtd"
   xmlns:inkscape="http://www.inkscape.org/namespaces/inkscape"
   width="100mm"
   height="98mm"
   viewBox="0 0 100 97.999999"
   version="1.1"
   id="svg2251"
   inkscape:version="1.0.1 (3bc2e813f5, 2020-09-07)"
   sodipodi:docname="linkedin.svg">
  <defs
     id="defs2245">
    <inkscape:path-effect
       effect="bspline"
       id="path-effect2283"
       is_visible="true"
       lpeversion="1"
       weight="33.333333"
       steps="2"
       helper_size="0"
       apply_no_weight="true"
       apply_with_weight="true"
       only_selected="false" />
    <inkscape:path-effect
       effect="bspline"
       id="path-effect2279"
       is_visible="true"
       lpeversion="1"
       weight="33.333333"
       steps="2"
       helper_size="0"
       apply_no_weight="true"
       apply_with_weight="true"
       only_selected="false" />
    <inkscape:path-effect
       effect="bspline"
       id="path-effect2275"
       is_visible="true"
       lpeversion="1"
       weight="33.333333"
       steps="2"
       helper_size="0"
       apply_no_weight="true"
       apply_with_weight="true"
       only_selected="false" />
    <inkscape:path-effect
       effect="bspline"
       id="path-effect2271"
       is_visible="true"
       lpeversion="1"
       weight="33.333333"
       steps="2"
       helper_size="0"
       apply_no_weight="true"
       apply_with_weight="true"
       only_selected="false" />
  </defs>
  <sodipodi:namedview
     id="base"
     pagecolor="#ffffff"
     bordercolor="#666666"
     borderopacity="1.0"
     inkscape:pageopacity="0.0"
     inkscape:pageshadow="2"
     inkscape:zoom="0.7"
     inkscape:cx="78.394273"
     inkscape:cy="5.5493358"
     inkscape:document-units="mm"
     inkscape:current-layer="layer1"
     inkscape:document-rotation="0"
     showgrid="false"
     fit-margin-top="0"
     fit-margin-left="0"
     fit-margin-right="0"
     fit-margin-bottom="0"
     inkscape:window-width="1920"
     inkscape:window-height="1027"
     inkscape:window-x="-8"
     inkscape:window-y="-8"
     inkscape:window-maximized="1" />
  <metadata
     id="metadata2248">
    <rdf:RDF>
      <cc:Work
         rdf:about="">
        <dc:format>image/svg+xml</dc:format>
        <dc:type
           rdf:resource="http://purl.org/dc/dcmitype/StillImage" />
        <dc:title></dc:title>
      </cc:Work>
    </rdf:RDF>
  </metadata>
  <g
     inkscape:label="Layer 1"
     inkscape:groupmode="layer"
     id="layer1"
     transform="translate(-80.223726,-96.975837)">
    <path
       style="fill:none;stroke:#000000;stroke-width:6;stroke-linecap:butt;stroke-linejoin:miter;stroke-miterlimit:4;stroke-dasharray:none;stroke-opacity:1"
       d="m 90.255684,186.86859 0.07635,-52.75823 15.957256,0.0762 0.22907,52.37647 z"
       id="path2267" />
    <path
       style="fill:none;stroke:#000000;stroke-width:6;stroke-linecap:butt;stroke-linejoin:miter;stroke-miterlimit:4;stroke-dasharray:none;stroke-opacity:1"
       d="m 91.095496,108.27849 c 0.01904,-0.0254 0.0572,-0.0763 0.435846,-0.41358 0.378642,-0.33731 1.097587,-0.96081 1.774711,-1.45225 0.677125,-0.49144 1.312272,-0.85072 1.971867,-1.10684 0.659594,-0.25612 1.343433,-0.40908 1.946331,-0.51705 0.602899,-0.10796 1.12477,-0.17095 1.511733,-0.18889 0.386963,-0.0179 0.638912,0.009 0.962846,0.0541 0.32393,0.045 0.71983,0.10799 1.15625,0.20701 0.43643,0.099 0.91332,0.23398 1.41721,0.42749 0.5039,0.19351 1.03477,0.44544 1.47565,0.72446 0.44088,0.27902 0.79179,0.58495 1.23718,1.01688 0.44539,0.43193 0.98525,0.98979 1.40808,1.5657 0.42283,0.57592 0.72876,1.16977 0.98965,1.82214 0.26089,0.65236 0.47683,1.36318 0.61625,2.074 0.13941,0.71082 0.20239,1.42167 0.13035,2.29442 -0.072,0.87274 -0.27899,1.90749 -0.61641,2.76218 -0.33743,0.85469 -0.80531,1.52953 -1.31818,2.17286 -0.51287,0.64333 -1.07075,1.25519 -1.77702,1.81302 -0.70627,0.55783 -1.56107,1.06171 -2.42928,1.39464 -0.86821,0.33294 -1.74999,0.4949 -2.564268,0.56692 -0.814278,0.072 -1.561095,0.054 -2.262913,-0.0449 -0.701818,-0.0989 -1.35866,-0.27887 -2.024513,-0.54875 -0.665853,-0.26988 -1.340694,-0.6298 -1.975088,-1.08414 -0.634394,-0.45433 -1.228247,-1.0032 -1.732208,-1.60603 -0.503962,-0.60283 -0.917856,-1.25966 -1.228356,-1.87602 -0.310501,-0.61636 -0.517453,-1.19222 -0.683966,-1.8311 -0.166513,-0.63888 -0.29248,-1.34071 -0.328532,-2.01111 -0.03605,-0.67041 0.01794,-1.30925 0.116893,-1.88967 0.09896,-0.58043 0.242924,-1.10231 0.418382,-1.61074 0.175459,-0.50843 0.382405,-1.00331 0.613058,-1.44929 0.230652,-0.44598 0.48499,-0.84295 0.612192,-1.04148 0.127203,-0.19854 0.127211,-0.19854 0.146255,-0.22394 z"
       id="path2269"
       inkscape:path-effect="#path-effect2271"
       inkscape:original-d="m 91.076452,108.30389 c 0.03861,-0.0504 0.07677,-0.10129 0.114519,-0.15272 0.719409,-0.62311 1.43836,-1.24661 2.156901,-1.87058 0.635594,-0.35886 1.27074,-0.71814 1.905465,-1.07785 0.684289,-0.15254 1.368124,-0.30552 2.051546,-0.4589 0.522319,-0.0626 1.044194,-0.12555 1.56565,-0.18896 0.252377,0.0274 0.504315,0.0545 0.755835,0.081 0.396342,0.0634 0.792242,0.12635 1.187732,0.18897 0.47733,0.13541 0.95422,0.27036 1.43068,0.40491 0.53133,0.25236 1.06219,0.50431 1.59265,0.75582 0.35135,0.30638 0.70227,0.6123 1.05276,0.9178 0.54033,0.55832 1.08019,1.11618 1.61964,1.67363 0.30636,0.59431 0.61229,1.18816 0.9178,1.7816 0.21638,0.71129 0.43233,1.42211 0.64785,2.13253 0.0634,0.71127 0.12635,1.42212 0.18896,2.13252 -0.20653,1.03522 -0.41348,2.06997 -0.62087,3.10431 -0.46746,0.67529 -0.93535,1.35012 -1.40368,2.02455 -0.55745,0.6123 -1.11532,1.22417 -1.67363,1.83559 -0.85439,0.50433 -1.70919,1.00821 -2.56442,1.51166 -0.8814,0.1624 -1.76318,0.32436 -2.645412,0.4859 -0.746423,-0.0176 -1.493243,-0.0355 -2.240502,-0.054 -0.656443,-0.17954 -1.313282,-0.35951 -1.970561,-0.53988 -0.674438,-0.3595 -1.349274,-0.71943 -2.02455,-1.07978 -0.593452,-0.54845 -1.187308,-1.09731 -1.781603,-1.64663 -0.413493,-0.65644 -0.827389,-1.31327 -1.241725,-1.97056 -0.20653,-0.57545 -0.413483,-1.15131 -0.620865,-1.7276 -0.125549,-0.70144 -0.251513,-1.40327 -0.377914,-2.10555 0.05441,-0.63843 0.108395,-1.27727 0.161966,-1.91655 0.144388,-0.52147 0.288362,-1.04335 0.431903,-1.56565 0.207384,-0.49449 0.414333,-0.98937 0.62086,-1.48469 0.254766,-0.39653 0.509098,-0.7935 0.763007,-1.19089 z" />
    <path
       style="fill:none;stroke:#000000;stroke-width:6;stroke-linecap:butt;stroke-linejoin:miter;stroke-miterlimit:4;stroke-dasharray:none;stroke-opacity:1"
       d="m 136.73234,191.15007 c 0.0232,-3.51322 0.0465,-7.0268 0.0671,-12.38294 0.0206,-5.35613 0.0386,-12.55422 0.20051,-17.7462 0.16193,-5.19198 0.46785,-8.37714 2.12367,-10.46495 1.65581,-2.08781 4.66101,-3.07755 7.52256,-2.99641 2.86155,0.0811 5.57884,1.23283 6.97331,3.51847 1.39446,2.28564 1.46644,5.70477 1.51106,11.7188 0.0446,6.01403 0.0619,14.62252 0.0772,19.77161 0.0153,5.14908 0.0285,6.83654 0.0418,8.52763"
       id="path2273"
       inkscape:path-effect="#path-effect2275"
       inkscape:original-d="m 136.73234,191.15007 c 0.0237,-3.51322 0.0471,-7.0268 0.0697,-10.54095 0.0184,-7.19812 0.0363,-14.39621 0.0539,-21.59519 0.30636,-3.18494 0.61228,-6.3701 0.9178,-9.55588 3.00582,-0.98936 6.01102,-1.9791 9.01599,-2.96933 2.71787,1.15219 5.43516,2.3039 8.15218,3.45522 0.0724,3.41973 0.14447,6.83886 0.21596,10.25771 0.0178,8.60922 0.035,17.21771 0.0518,25.82594 0.0133,1.68994 0.027,3.3774 0.0398,5.06849"
       sodipodi:nodetypes="ccccccccc" />
    <path
       style="fill:none;stroke:#000000;stroke-width:6;stroke-linecap:butt;stroke-linejoin:miter;stroke-miterlimit:4;stroke-dasharray:none;stroke-opacity:1"
       d="m 132.03771,138.84943 c 2.22293,0.018 4.44571,0.036 6.61174,-0.96188 2.16602,-0.99789 4.27653,-3.01189 6.21147,-4.2718 1.93495,-1.2599 3.69332,-1.76526 6.05294,-1.86045 2.35961,-0.0952 5.31985,0.21973 8.32075,1.52462 3.00091,1.3049 6.04216,3.59934 8.07558,6.05139 2.03342,2.45205 3.05918,5.06144 3.64396,8.21974 0.58477,3.1583 0.72873,6.86539 0.79171,13.56899 0.063,6.7036 0.045,16.40324 0.0181,21.26189 -0.0269,4.85865 -0.0629,4.87668 -0.3237,4.88572 -0.2608,0.009 -0.74668,0.009 -3.46413,-0.0269 -2.71744,-0.036 -7.66626,-0.10798 -12.61562,-0.17998"
       id="path2277"
       inkscape:path-effect="#path-effect2279"
       inkscape:original-d="m 132.03771,138.84943 c 2.22293,0.0184 4.44571,0.0363 6.6675,0.054 2.11069,-2.01332 4.22119,-4.02733 6.33153,-6.04201 1.75927,-0.50508 3.51765,-1.01042 5.27588,-1.51629 2.96081,0.31536 5.92105,0.63028 8.88102,0.94478 3.04182,2.29498 6.08308,4.58942 9.12397,6.88347 1.02621,2.6099 2.05198,5.21928 3.07733,7.82826 0.14446,3.70769 0.28835,7.41478 0.43189,11.12153 -0.0176,9.70047 -0.0355,19.40011 -0.054,29.09952 -0.0355,0.0184 -0.0716,0.0363 -0.10792,0.054 -0.48546,4.1e-4 -0.97134,4.1e-4 -1.45766,0 -4.94858,-0.0716 -9.8974,-0.1435 -14.84675,-0.21597"
       sodipodi:nodetypes="cccccccccccc" />
    <path
       style="fill:none;stroke:#000000;stroke-width:6;stroke-linecap:butt;stroke-linejoin:miter;stroke-miterlimit:4;stroke-dasharray:none;stroke-opacity:1"
       d="m 136.84263,187.11467 c -5.38891,0.0365 -10.77825,0.0729 -13.50479,-0.0168 -2.72653,-0.0897 -2.78998,-0.30615 -2.80382,-0.52242 -0.0138,-0.21627 0.0221,-0.43223 0.0401,-9.13343 0.018,-8.7012 0.018,-25.88701 0.0295,-34.46774 0.0115,-8.58072 0.0341,-8.55594 0.0858,-8.54269 0.0517,0.0133 0.13271,0.0156 2.73752,0.01 2.60482,-0.006 7.73326,-0.0192 10.23746,0.1314 2.5042,0.1506 2.38474,0.46469 2.38792,0.51244 0.003,0.0478 0.12903,-0.17107 0.20027,0.38949 0.0712,0.56055 0.0877,1.90036 0.10411,3.23974"
       id="path2281"
       inkscape:path-effect="#path-effect2283"
       inkscape:original-d="m 136.84263,187.11467 c -5.38891,0.0369 -10.77825,0.0733 -16.16801,0.10937 -0.063,-0.21602 -0.12647,-0.43242 -0.19036,-0.64928 0.0363,-0.21554 0.0724,-0.43148 0.10792,-0.64786 0.0363,-17.1861 4.2e-4,-34.37191 0,-51.55852 0.0229,0.0252 0.0455,0.05 0.0676,0.0741 0.0814,0.003 0.16239,0.005 0.24296,0.007 5.12907,-0.0132 10.25751,-0.0266 15.38563,-0.0407 -0.11932,0.31491 -0.23866,0.62905 -0.35884,0.94347 0.12648,-0.21886 0.25237,-0.43765 0.37792,-0.65711 0.0168,1.34028 0.0333,2.68008 0.0493,4.01947"
       sodipodi:nodetypes="ccccccccccc" />
  </g>
</svg>
