<?xml version="1.0" encoding="UTF-8" standalone="no"?>
<svg
   xmlns:dc="http://purl.org/dc/elements/1.1/"
   xmlns:cc="http://creativecommons.org/ns#"
   xmlns:rdf="http://www.w3.org/1999/02/22-rdf-syntax-ns#"
   xmlns:svg="http://www.w3.org/2000/svg"
   xmlns="http://www.w3.org/2000/svg"
   xmlns:sodipodi="http://sodipodi.sourceforge.net/DTD/sodipodi-0.dtd"
   xmlns:inkscape="http://www.inkscape.org/namespaces/inkscape"
   width="100mm"
   height="100mm"
   viewBox="0 0 100 100"
   version="1.1"
   id="svg1664"
   inkscape:version="1.0.1 (3bc2e813f5, 2020-09-07)"
   sodipodi:docname="twitter.svg">
  <defs
     id="defs1658">
    <inkscape:path-effect
       effect="bspline"
       id="path-effect1682"
       is_visible="true"
       lpeversion="1"
       weight="33.333333"
       steps="2"
       helper_size="0"
       apply_no_weight="true"
       apply_with_weight="true"
       only_selected="false" />
  </defs>
  <sodipodi:namedview
     id="base"
     pagecolor="#ffffff"
     bordercolor="#666666"
     borderopacity="1.0"
     inkscape:pageopacity="0.0"
     inkscape:pageshadow="2"
     inkscape:zoom="0.7"
     inkscape:cx="206.39883"
     inkscape:cy="256.32926"
     inkscape:document-units="mm"
     inkscape:current-layer="layer1"
     inkscape:document-rotation="0"
     showgrid="false"
     fit-margin-top="0"
     fit-margin-left="0"
     fit-margin-right="0"
     fit-margin-bottom="0"
     inkscape:window-width="1920"
     inkscape:window-height="1027"
     inkscape:window-x="-8"
     inkscape:window-y="-8"
     inkscape:window-maximized="1" />
  <metadata
     id="metadata1661">
    <rdf:RDF>
      <cc:Work
         rdf:about="">
        <dc:format>image/svg+xml</dc:format>
        <dc:type
           rdf:resource="http://purl.org/dc/dcmitype/StillImage" />
        <dc:title></dc:title>
      </cc:Work>
    </rdf:RDF>
  </metadata>
  <g
     inkscape:label="Layer 1"
     inkscape:groupmode="layer"
     id="layer1"
     transform="translate(-60.235277,-105.86028)">
    <path
       style="fill:none;stroke:#000000;stroke-width:6;stroke-linecap:butt;stroke-linejoin:miter;stroke-miterlimit:4;stroke-dasharray:none;stroke-opacity:1"
       d="m 66.170179,186.18527 c 1.168845,0.10519 3.506237,0.31556 6.74352,-0.0176 3.237282,-0.33313 7.374379,-1.20963 10.646676,-2.44846 3.272298,-1.23883 5.67977,-2.83992 7.093878,-3.80993 1.414109,-0.97001 1.834826,-1.30893 2.021942,-1.47838 0.187115,-0.16945 0.140365,-0.16945 -1.338049,-0.3389 -1.478414,-0.16944 -4.388407,-0.50835 -7.187476,-2.06262 -2.79907,-1.55427 -5.487012,-4.32403 -6.959674,-6.31664 -1.472661,-1.99262 -1.729769,-3.20804 -1.788084,-3.80421 -0.05832,-0.59617 0.08193,-0.5728 0.677978,-0.47347 0.596045,0.0993 1.647853,0.27463 2.857427,0.27459 1.209575,-4e-5 2.57692,-0.17534 3.406637,-0.33313 0.829717,-0.15778 1.121885,-0.29802 1.227167,-0.3914 0.105282,-0.0934 0.02349,-0.14011 -1.554279,-0.68361 -1.577771,-0.54349 -4.651378,-1.58361 -7.035611,-3.69303 -2.384232,-2.10942 -4.078808,-5.28821 -5.066417,-7.61978 -0.98761,-2.33157 -1.268091,-3.81578 -1.37916,-4.81505 -0.111069,-0.99928 -0.05263,-1.51349 0.02351,-1.75901 0.07614,-0.24551 0.169635,-0.22215 0.748151,0.11684 0.578516,0.33898 1.642009,0.99344 3.044446,1.39071 1.402437,0.39727 3.143759,0.53751 3.979362,0.56687 0.835603,0.0294 0.765469,-0.0525 -0.333103,-0.94071 -1.098573,-0.88825 -3.225557,-2.58283 -4.680701,-5.03124 -1.455144,-2.4484 -2.238155,-5.65056 -2.466107,-8.11074 -0.227952,-2.46018 0.09927,-4.17812 0.449882,-5.68577 0.350607,-1.50764 0.724583,-2.80488 1.081057,-3.64058 0.356474,-0.8357 0.695386,-1.20968 0.905882,-1.34393 0.210496,-0.13425 0.292301,-0.0291 0.847449,0.63709 0.555147,0.66617 1.583571,1.89327 2.758147,3.10871 1.174576,1.21544 2.495169,2.41917 3.903472,3.57033 1.408303,1.15115 2.904207,2.24971 4.581311,3.34828 1.677103,1.09857 3.535288,2.19711 5.370165,3.13205 1.834876,0.93494 3.646315,1.70626 5.650647,2.41915 2.004332,0.71289 4.201438,1.36735 6.28757,1.86403 2.08613,0.49668 4.06118,0.83559 5.60385,1.03425 1.54267,0.19866 2.65291,0.25709 3.18458,0.22218 0.53167,-0.0349 0.48493,-0.16343 0.34464,-1.52501 -0.1403,-1.36158 -0.37403,-3.95602 0.24535,-6.72595 0.61938,-2.76994 2.09191,-5.71499 4.13721,-8.09922 2.0453,-2.38423 4.66312,-4.20736 7.56161,-5.341 2.89849,-1.13364 6.07728,-1.57774 8.89975,-1.22118 2.82247,0.35657 5.28837,1.51355 7.11737,2.61804 1.829,1.10448 3.02104,2.15628 3.66381,2.6762 0.64277,0.51992 0.73623,0.50822 1.51925,0.31537 0.78303,-0.19286 2.25555,-0.56684 3.93846,-1.16288 1.6829,-0.59605 3.57616,-1.41412 4.80327,-1.99847 1.22711,-0.58435 1.78806,-0.93494 2.03928,-1.0693 0.25122,-0.13436 0.19278,-0.0525 -0.0819,0.57277 -0.27466,0.62531 -0.7655,1.79398 -1.31479,2.94513 -0.54929,1.15116 -1.157,2.28477 -2.25554,3.41835 -1.09853,1.13358 -2.68792,2.2672 -3.46504,2.86927 -0.77712,0.60208 -0.74208,0.67218 -0.51418,0.63108 0.22789,-0.0411 0.64862,-0.19303 1.68296,-0.43845 1.03433,-0.24543 2.68216,-0.58435 4.21898,-1.02846 1.53681,-0.44412 2.96258,-0.99339 3.64618,-1.20368 0.68359,-0.21028 0.62514,-0.0817 -0.0702,0.80063 -0.69537,0.88233 -2.02765,2.51847 -3.5411,4.04945 -1.51345,1.53098 -3.20802,2.95676 -4.06705,3.69896 -0.85903,0.7422 -0.88241,0.80066 -0.87254,3.00761 0.01,2.20694 0.0529,6.56211 -1.55363,12.68164 -1.60654,6.11953 -4.86246,14.00316 -9.64729,20.2837 -4.78482,6.28055 -11.09833,10.95783 -15.94098,13.97417 -4.84264,3.01633 -8.21425,4.37159 -14.30479,5.4294 -6.090538,1.0578 -14.899703,1.81807 -22.023521,0.6601 -7.123818,-1.15798 -12.561964,-4.23428 -15.376068,-5.84987 -2.814104,-1.61558 -3.004008,-1.77043 -3.11064,-1.85373 -0.106632,-0.0833 -0.130016,-0.095 -0.141865,-0.10089 -0.01185,-0.006 -0.01187,-0.006 1.156973,0.0993 z"
       id="path1680"
       inkscape:path-effect="#path-effect1682"
       inkscape:original-d="m 65.001333,186.08007 c 2.337669,0.21064 4.675061,0.42101 7.012173,0.6311 4.137542,-0.87627 8.27464,-1.75277 12.411544,-2.62957 2.407838,-1.60086 4.815305,-3.20195 7.222538,-4.80333 0.421017,-0.33866 0.841739,-0.67757 1.262192,-1.01678 -0.04647,2.9e-4 -0.09322,2.9e-4 -0.140245,0 -2.909831,-0.33865 -5.819824,-0.67756 -8.730155,-1.01676 -2.687775,-2.76959 -5.375719,-5.53934 -8.063996,-8.30943 -0.25684,-1.21518 -0.513949,-2.4306 -0.771339,-3.64632 0.140522,0.0236 0.280763,0.047 0.42073,0.0701 1.052123,0.17558 2.103928,0.35089 3.155476,0.5259 1.367681,-0.17502 2.735026,-0.35032 4.10212,-0.5259 0.29246,-0.13997 0.584628,-0.28021 0.876524,-0.42073 -0.08153,-0.0465 -0.163339,-0.0932 -0.245425,-0.14024 -3.073454,-1.03989 -6.147062,-2.08001 -9.221008,-3.12043 -1.694364,-3.17863 -3.38894,-6.35742 -5.083824,-9.53655 -0.280217,-1.484 -0.560698,-2.96821 -0.841461,-4.45272 0.05872,-0.51396 0.117147,-1.02818 0.175305,-1.54269 0.09378,0.0236 0.187267,0.047 0.280486,0.0701 1.063812,0.65476 2.127303,1.30922 3.190538,1.96341 1.741668,0.14052 3.482989,0.28077 5.224067,0.42073 -0.06984,-0.0815 -0.139964,-0.16333 -0.210364,-0.24542 -2.126792,-1.69437 -4.253774,-3.38895 -6.381076,-5.08383 -0.782765,-3.20201 -1.565775,-6.40417 -2.349079,-9.60667 0.32752,-1.71775 0.654747,-3.43569 0.981706,-5.15395 0.374266,-1.297 0.748243,-2.59423 1.121948,-3.89176 0.339204,-0.37371 0.67812,-0.74768 1.016764,-1.12195 0.08209,0.10547 0.163893,0.21065 0.245425,0.31555 1.028751,1.22744 2.057182,2.45453 3.085356,3.68139 1.32093,1.20407 2.641529,2.40779 3.961879,3.61127 1.496235,1.09887 2.992137,2.19743 4.48779,3.29573 1.858539,1.09887 3.716728,2.19741 5.574676,3.29571 1.811791,0.77164 3.623232,1.54296 5.434432,2.31402 2.197469,0.65476 4.394575,1.30922 6.59143,1.96341 1.97542,0.33921 3.95047,0.67812 5.92527,1.01677 1.11057,0.0587 2.22081,0.11714 3.33079,0.1753 -0.0465,-0.12828 -0.0932,-0.25682 -0.14024,-0.38566 -0.23347,-2.59428 -0.4672,-5.18872 -0.70122,-7.78351 1.47286,-2.94489 2.94539,-5.88994 4.41767,-8.83533 2.61821,-1.82293 5.23603,-3.64606 7.85364,-5.4695 3.17919,-0.44384 6.35798,-0.88793 9.53655,-1.33232 2.46628,1.15731 4.93217,2.3143 7.39784,3.47104 1.19238,1.05212 2.38442,2.10392 3.57621,3.15548 0.0938,-0.0114 0.18726,-0.0231 0.28049,-0.0351 1.47286,-0.37371 2.94538,-0.74769 4.41766,-1.12195 1.8936,-0.81782 3.78686,-1.63589 5.67986,-2.45426 0.56127,-0.35034 1.12222,-0.70094 1.68292,-1.05182 -0.0581,0.0821 -0.11659,0.16389 -0.1753,0.24542 -0.49058,1.169 -0.98142,2.33767 -1.47256,3.50609 -0.60745,1.13393 -1.21516,2.26754 -1.82316,3.4009 -1.58918,1.13393 -3.17857,2.26755 -4.76827,3.40091 0.0354,0.0704 0.0704,0.14052 0.10517,0.21036 0.42102,-0.15165 0.84175,-0.30358 1.2622,-0.45578 1.64817,-0.33866 3.296,-0.67757 4.94358,-1.01678 1.42611,-0.54902 2.85188,-1.09829 4.27742,-1.64785 -0.0581,0.12883 -0.11659,0.25739 -0.1753,0.38566 -1.33206,1.63649 -2.66435,3.27263 -3.99694,4.90853 -1.69436,1.42611 -3.38893,2.85189 -5.08382,4.27742 -0.0231,0.0587 -0.0465,0.11715 -0.0701,0.1753 0.0434,4.35562 0.0864,8.71079 0.12911,13.06577 -3.25577,7.88422 -6.51169,15.76785 -9.76796,23.65135 -6.31349,4.67776 -12.627,9.35505 -18.94092,14.03215 -3.37146,1.35559 -6.74308,2.71084 -10.11504,4.06585 -8.809222,0.76057 -17.618387,1.52084 -26.428008,2.28084 -5.43809,-3.07616 -10.87624,-6.15246 -16.314775,-9.22911 -0.18964,-0.15459 -0.379549,-0.30943 -0.569739,-0.46456 -0.0231,-0.0114 -0.04647,-0.0231 -0.07013,-0.035 z" />
  </g>
</svg>
